# xmcd
#
# Track frame offsets: 
#        150
#        7310
#        26705
#        47002
#        81340
#        102615
#        128870
#        147185
#
# Disc length: 2139 seconds
#
# Revision: 0
# Processed by: cddbd v1.5.2PL0 Copyright (c) Steve Scherf et al.
# Submitted via: ExactAudioCopyFreeDBPlugin 1.0
#
DISCID=70085908
DTITLE=Mirek Blues Band - The Bluespower
DYEAR=1993
DGENRE=Blues
TTITLE0=Crossbow
TTITLE1=Hard Life
TTITLE2=It`s A Long Night
TTITLE3=Everyday
TTITLE4=Hey!
TTITLE5=For You Clare
TTITLE6=I`m Playing Boogie
TTITLE7=Mirek`s Boogie
EXTD=
EXTT0=
EXTT1=
EXTT2=
EXTT3=
EXTT4=
EXTT5=
EXTT6=
EXTT7=
PLAYORDER=
